<svg xmlns="http://www.w3.org/2000/svg" fill="none" viewBox="0 0 48 48"><g clip-path="url(#a)"><g clip-path="url(#b)"><path fill="#4aa7ff" fill-rule="evenodd" d="M48 19.318H32.96l-17.504 17.37 4.168 4.179a6.32 6.32 0 0 0 9.008-.031l17.919-18.212A5.07 5.07 0 0 0 48 19.318" clip-rule="evenodd"/><path fill="#1a7bff" d="M14.207 31.555a6.5 6.5 0 0 1-5.702-1.783L2.02 23.355c-1.138-1.03-2.096-2.497-2.096-4.037h33.037L22.113 30.165z"/><path fill="#379fff" fill-rule="evenodd" d="M-.027 19.318h33.02L21.396 7.978h-7.892c-3.194 0-6.258 1.321-8.517 3.673l-3.57 3.717a5.27 5.27 0 0 0-1.444 3.95" clip-rule="evenodd"/><path fill="#66cfff" fill-rule="evenodd" d="m21.373 7.977 11.577 11.34h15.043a5.23 5.23 0 0 0-1.466-3.924l-3.644-3.742c-2.291-2.352-5.398-3.674-8.638-3.674z" clip-rule="evenodd"/></g></g><defs><clipPath id="a"><path fill="#fff" d="M0 0h48v48H0z"/></clipPath><clipPath id="b"><path fill="#fff" d="M0 0h48v48H0z"/></clipPath></defs></svg>